# xmcd CD database file
#
# Track frame offsets:
#	150
#	28471
#	51915
#	67656
#	89513
#	113488
#	128950
#	156505
#	173443
#
# Disc length: 2538 seconds
#
# Revision: 0
# Processed by: cddbd v1.5.2PL0 Copyright (c) Steve Scherf et al.
# Submitted via: CDex 1.51
#
DISCID=7309e809
DTITLE=Alex Wilson - Inglaterra
DYEAR=2007
DGENRE=Salsa
TTITLE0=Alex Wilson - La Vida Que Nos Merecemos
TTITLE1=Alex Wilson - Show Me
TTITLE2=Alex Wilson - Oh Kuri
TTITLE3=Alex Wilson - Ain't Nobody
TTITLE4=Alex Wilson - Pega' En Inglaterra
TTITLE5=Alex Wilson - Subelo
TTITLE6=Alex Wilson - Inglaterra
TTITLE7=Alex Wilson - Nature Boy
TTITLE8=Alex Wilson - Show Me (Remix)
EXTD=YEAR: 2007
EXTT0=
EXTT1=
EXTT2=
EXTT3=
EXTT4=
EXTT5=
EXTT6=
EXTT7=
EXTT8=
PLAYORDER=
